# xmcd
#
# Track frame offsets:
#	150
#	10761
#	23154
#	35709
#	49182
#	60117
#	70890
#	84471
#	96297
#	107718
#	120327
#	130776
#	144087
#	155670
#	166389
#	176865
#	191148
#	201921
#	213180
#	225708
#	239262
#	251628
#	263346
#	277066
#
# Disc length: 3841 seconds
#
# Revision: 0
# Processed by: cddbd v1.5.1PL0 Copyright (c) Steve Scherf et al.
# Submitted via: audiograbber 1.82.02
#
DISCID=4b0eff18
DTITLE=Various Artist - City Jump vs Country Jump
DYEAR=1900
DGENRE=
TTITLE0=Piney 'Kokomo' Brown and His Blue Flashes
TTITLE1=Freddie Clark
TTITLE2=Jimmy Lewis and His Band
TTITLE3=Ed Barron With Orchestra
TTITLE4=Eddie 'Tex' Curtis and His Orchestra
TTITLE5=Piney Brown With Orchestra
TTITLE6=Carl Matthews and Orchestra
TTITLE7=Jimmy Crawford With Frank Motley's Crew
TTITLE8=Bumps Myers and His Frantic Five
TTITLE9=Jimmy Preston With Burnetta Evans
TTITLE10=Al Jackson
TTITLE11=Duke Jenkins
TTITLE12=Joe Conwright and His Lucky Seven
TTITLE13=Vernon Dilworth's Top Cats
TTITLE14=Big Walter and His Thunderbirds
TTITLE15=Jimmy Milner and His Blue Ribbon Band
TTITLE16=Rufus Thomas Jr.
TTITLE17=Groove Five
TTITLE18=Mr. Rain
TTITLE19=Marcellus Thomas and His Rhythms Of Rocketts
TTITLE20=Bill Johnson and His Stir Cats
TTITLE21=Jack Davis
TTITLE22=23 - Mr. Swing With Bobby Platers' Orchestra - Beer Bottle Boogie
TTITLE23=24 - Mr. Swing With Bobby Platers' Orchestra - Gonna Bring My Baby Bac
TTITLE23=k
EXTD=
EXTT0=
EXTT1=
EXTT2=
EXTT3=
EXTT4=
EXTT5=
EXTT6=
EXTT7=
EXTT8=
EXTT9=
EXTT10=
EXTT11=
EXTT12=
EXTT13=
EXTT14=
EXTT15=
EXTT16=
EXTT17=
EXTT18=
EXTT19=
EXTT20=
EXTT21=
EXTT22=
EXTT23=
PLAYORDER=
